<?xml version="1.0" standalone="no"?>
<!DOCTYPE svg PUBLIC "-//W3C//DTD SVG 20010904//EN"
 "http://www.w3.org/TR/2001/REC-SVG-20010904/DTD/svg10.dtd">
<svg version="1.0" xmlns="http://www.w3.org/2000/svg"
 width="229.000000pt" height="229.000000pt" viewBox="0 0 229.000000 229.000000"
 preserveAspectRatio="xMidYMid meet">
<metadata>
Created by potrace 1.14, written by Peter Selinger 2001-2017
</metadata>
<g transform="translate(0.000000,229.000000) scale(0.100000,-0.100000)"
fill="#000000" stroke="none">
<path d="M0 1145 l0 -905 1145 0 1145 0 0 905 0 905 -1145 0 -1145 0 0 -905z
m1103 786 c45 -17 41 -47 -18 -138 -30 -46 -55 -90 -55 -98 0 -25 -45 -69 -64
-62 -29 11 -2 67 94 195 l32 42 -39 0 c-37 -1 -170 -27 -145 -29 6 -1 12 -6
12 -12 0 -6 -16 -9 -37 -7 -36 3 -38 5 -35 33 2 17 9 36 17 44 31 32 184 52
238 32z m187 -23 c0 -15 -43 -72 -109 -140 -30 -32 -51 -58 -48 -58 4 0 30 18
59 40 29 22 57 40 61 40 19 0 17 -32 -3 -60 -12 -17 -20 -33 -18 -36 11 -11
41 11 69 52 21 32 40 47 70 55 76 23 79 -37 3 -74 -24 -11 -44 -27 -44 -34 0
-20 38 -16 77 8 47 29 51 18 8 -20 -56 -49 -111 -54 -122 -11 -7 25 -5 25 -49
-5 -20 -14 -41 -25 -46 -25 -18 0 -21 35 -4 64 16 28 13 27 -27 -13 -25 -24
-50 -40 -56 -37 -24 15 -11 74 29 134 62 92 150 163 150 120z m36 -378 c104 0
159 -76 135 -186 -9 -36 -21 -61 -40 -76 l-27 -24 27 -27 c59 -58 45 -214 -23
-261 -17 -12 -48 -16 -128 -16 l-105 0 27 23 26 22 10 250 c10 240 9 251 -9
271 -28 30 -24 37 19 30 20 -3 60 -6 88 -6z m-289 -21 c74 -27 87 -202 19
-258 -13 -11 -11 -16 15 -39 28 -26 29 -32 35 -132 6 -97 9 -107 33 -127 l26
-22 -46 -1 c-73 0 -80 10 -86 130 -6 118 -19 150 -60 150 l-26 0 7 -117 c6
-108 9 -120 31 -140 l24 -21 -79 -4 c-44 -2 -80 -1 -80 1 0 3 8 14 18 25 17
20 18 36 9 271 l-9 250 -26 22 -26 22 64 4 c71 3 122 -1 157 -14z m677 -5
l108 -7 -7 -71 c-3 -39 -10 -87 -14 -106 l-8 -35 -11 40 c-6 22 -14 59 -18 83
-7 45 -25 62 -67 62 -23 0 -24 -4 -35 -107 -7 -60 -12 -114 -12 -120 0 -25 29
-12 50 23 12 19 24 33 26 31 4 -4 -16 -170 -22 -176 -1 -2 -10 13 -18 33 -8
20 -22 36 -30 36 -14 0 -19 -19 -31 -130 -3 -30 -8 -67 -11 -82 -5 -27 -4 -28
35 -28 l41 0 38 78 c44 91 41 86 46 81 3 -4 -22 -201 -27 -205 -1 -1 -60 4
-132 10 l-130 11 28 20 c26 20 27 25 58 273 l32 253 -24 26 -24 26 25 -6 c14
-3 74 -9 134 -13z m-1020 -251 c95 -319 95 -321 119 -338 11 -8 19 -16 16 -19
-6 -6 -139 -13 -139 -7 0 2 7 12 16 22 14 16 15 23 2 61 -14 40 -17 43 -55 46
-35 3 -41 0 -47 -20 -13 -49 -7 -87 17 -100 22 -12 22 -12 -8 -19 -16 -4 -45
-7 -64 -8 l-34 -1 20 23 c19 20 21 42 32 296 11 274 13 290 47 291 6 0 41
-102 78 -227z m1349 187 c94 -17 127 -48 127 -121 0 -63 -31 -133 -69 -156
-14 -10 -28 -18 -30 -20 -2 -2 3 -11 11 -20 26 -31 27 -47 3 -148 -21 -87 -22
-101 -9 -119 21 -31 18 -35 -22 -26 -67 15 -71 27 -46 132 25 105 27 139 10
156 -24 24 -47 14 -57 -25 -48 -184 -49 -197 -24 -225 19 -22 16 -22 -82 -4
-68 12 -69 13 -42 26 31 15 25 -2 98 300 50 207 51 215 35 243 -16 29 -16 29
6 24 13 -3 53 -11 91 -17z m-1698 -92 c59 -46 86 -170 46 -219 -18 -23 -18
-23 12 -43 44 -30 68 -77 74 -146 6 -66 -8 -115 -39 -131 -16 -9 -165 -39
-192 -39 -5 0 -2 8 7 18 10 10 17 25 17 33 0 8 -27 122 -59 253 -38 155 -65
244 -75 251 -40 30 -12 40 115 43 54 2 71 -2 94 -20z m749 -579 c19 -16 38
-39 42 -51 6 -19 7 -18 24 8 34 56 57 69 124 69 83 0 152 -36 247 -129 139
-135 262 -216 335 -219 19 -1 34 -5 34 -9 0 -3 -21 -20 -46 -37 -59 -38 -117
-48 -183 -28 -49 14 -50 14 -40 -5 9 -17 8 -19 -9 -13 -12 3 -77 17 -147 30
-137 27 -192 47 -244 91 -34 29 -80 112 -82 149 0 11 -6 2 -13 -20 -43 -135
-106 -179 -321 -220 -70 -13 -135 -27 -147 -30 -17 -6 -18 -4 -9 13 10 19 9
19 -40 5 -66 -20 -124 -10 -183 28 -25 17 -46 34 -46 37 0 4 16 8 36 10 56 4
162 65 261 152 50 43 97 87 105 98 33 46 151 101 220 101 39 1 54 -4 82 -30z"/>
<path d="M1355 1760 c-27 -30 -12 -34 15 -5 13 14 19 25 13 25 -5 0 -18 -9
-28 -20z"/>
<path d="M1315 1487 c-2 -7 -6 -60 -9 -119 l-7 -108 25 0 c36 0 57 38 63 115
4 48 2 70 -10 88 -18 27 -56 42 -62 24z"/>
<path d="M1300 1177 c0 -24 -3 -78 -6 -120 l-7 -77 30 0 c48 0 58 21 58 122 0
77 -3 91 -19 104 -11 8 -28 14 -38 14 -15 0 -18 -8 -18 -43z"/>
<path d="M940 1448 c0 -25 3 -79 6 -121 6 -63 10 -77 24 -77 40 0 56 49 52
156 -2 48 -18 71 -54 80 -27 6 -28 5 -28 -38z"/>
<path d="M611 1155 l-2 -95 29 0 c16 0 31 2 34 5 6 7 -44 185 -53 185 -3 0 -7
-43 -8 -95z"/>
<path d="M2011 1303 c-12 -54 -25 -106 -27 -116 -5 -16 -1 -18 28 -15 28 3 36
10 56 49 31 63 40 140 17 162 -37 37 -50 23 -74 -80z"/>
<path d="M227 1333 c-3 -5 7 -57 22 -118 24 -97 29 -110 46 -107 11 2 26 9 33
14 29 24 -1 175 -41 203 -23 16 -53 20 -60 8z"/>
<path d="M290 1058 c1 -7 13 -62 28 -123 26 -106 28 -110 52 -106 35 4 42 19
36 76 -7 70 -22 117 -46 143 -22 24 -70 30 -70 10z"/>
</g>
</svg>
